<?xml version="1.0" standalone="no"?>
<!DOCTYPE svg PUBLIC "-//W3C//DTD SVG 20010904//EN"
 "http://www.w3.org/TR/2001/REC-SVG-20010904/DTD/svg10.dtd">
<svg version="1.0" xmlns="http://www.w3.org/2000/svg"
 width="128.000000pt" height="128.000000pt" viewBox="0 0 128.000000 128.000000"
 preserveAspectRatio="xMidYMid meet">
<metadata>
Created by potrace 1.14, written by Peter Selinger 2001-2017
</metadata>
<g transform="translate(0.000000,128.000000) scale(0.100000,-0.100000)"
fill="#000000" stroke="none">
<path d="M629 1256 c-2 -2 -24 -6 -49 -9 -25 -3 -52 -8 -60 -11 -8 -3 -26 -7
-40 -10 -51 -8 -109 -29 -104 -37 3 -5 -1 -6 -9 -3 -8 3 -17 -2 -20 -10 -4 -9
-16 -16 -27 -16 -11 0 -23 -7 -27 -15 -3 -9 -17 -22 -32 -29 -31 -16 -81 -62
-81 -73 0 -5 -13 -23 -29 -41 -17 -17 -27 -32 -24 -32 4 0 -3 -10 -14 -22 -26
-29 -48 -74 -59 -118 -4 -19 -9 -42 -11 -50 -2 -8 -4 -30 -4 -47 -1 -18 -4
-31 -8 -29 -3 2 -5 -24 -4 -57 2 -79 8 -114 27 -182 2 -5 6 -23 11 -40 4 -16
18 -49 31 -72 13 -24 21 -43 19 -43 -3 0 3 -9 13 -19 9 -11 22 -26 27 -33 26
-35 75 -88 75 -81 0 4 6 -2 14 -13 8 -10 18 -19 23 -19 5 0 17 -8 27 -18 10
-9 24 -17 32 -17 8 0 14 -4 14 -8 0 -8 76 -43 84 -39 1 1 10 -4 19 -12 10 -7
17 -10 17 -6 0 4 7 2 15 -5 8 -6 18 -9 22 -7 5 3 33 0 63 -7 57 -13 146 -13
190 -1 14 4 40 9 57 12 20 3 30 9 26 16 -3 6 -1 7 5 3 6 -4 22 -1 34 6 13 7
26 11 31 10 4 -1 7 3 7 9 0 5 4 8 9 5 5 -4 11 -3 13 1 1 5 24 19 51 33 26 13
47 28 47 32 0 3 9 9 20 13 11 3 19 12 17 18 -1 7 5 11 13 9 8 -2 12 -1 8 3 -4
4 9 23 29 41 20 19 32 34 27 34 -5 0 -1 6 8 13 25 20 86 163 80 190 -1 4 2 7
6 7 5 0 9 6 9 13 0 22 14 111 19 130 3 9 1 17 -5 17 -6 0 -11 5 -11 11 0 5 5
7 12 3 7 -4 8 -3 4 4 -7 12 -18 71 -20 109 0 11 -5 19 -9 16 -5 -3 -8 5 -6 18
2 25 -9 60 -22 69 -4 3 -10 18 -13 34 -3 16 -9 32 -14 35 -14 9 -67 95 -64
104 1 5 -2 6 -8 2 -5 -3 -10 -1 -10 4 0 6 -19 24 -42 41 -22 16 -37 30 -32 30
5 0 -10 9 -33 21 -24 12 -43 24 -43 28 0 4 -30 18 -67 31 -38 13 -71 28 -75
34 -4 6 -8 7 -8 3 0 -4 -10 -3 -21 4 -17 9 -20 8 -14 -2 6 -8 4 -10 -6 -4 -7
5 -35 10 -60 11 -26 1 -51 4 -56 7 -6 4 -12 5 -14 3z m202 -70 c98 -34 155
-70 229 -145 109 -111 160 -240 160 -406 0 -261 -148 -469 -390 -548 -103 -34
-187 -41 -288 -23 -224 39 -390 187 -460 410 -26 83 -23 253 7 344 69 210 250
361 476 396 64 9 199 -5 266 -28z"/>
<path d="M601 1100 c-41 -21 -89 -53 -106 -70 -19 -19 -50 -36 -76 -41 -53
-12 -107 -61 -150 -135 -27 -48 -39 -104 -21 -104 4 0 18 7 30 16 22 15 31 7
13 -11 -19 -20 -51 -136 -51 -185 0 -62 20 -67 53 -13 l22 38 7 -60 c4 -32 13
-74 18 -91 11 -32 36 -61 45 -52 3 3 10 53 15 112 11 115 33 182 80 251 17 24
30 47 30 51 0 17 -77 -8 -112 -36 -21 -17 -38 -28 -38 -24 0 4 18 31 40 60 52
69 51 78 -2 70 l-43 -6 29 24 c21 18 46 25 99 31 97 9 127 26 127 70 0 27 -4
35 -17 35 -14 1 -12 4 7 15 36 20 40 19 28 -13 -17 -45 -4 -79 34 -87 39 -9
92 -34 85 -41 -3 -3 -19 2 -36 10 -34 18 -78 20 -115 6 -36 -13 -32 -34 10
-60 31 -20 43 -21 107 -15 52 4 93 2 144 -10 66 -15 72 -19 78 -46 11 -47 -21
-65 -127 -72 -65 -4 -99 -12 -126 -27 -34 -20 -33 -18 17 30 66 63 59 80 -22
50 -146 -55 -228 -222 -198 -403 10 -60 45 -121 65 -114 6 2 14 30 18 63 13
97 29 165 39 159 5 -4 9 -14 9 -25 0 -31 55 -143 98 -196 43 -54 124 -114 154
-114 10 0 18 2 18 5 0 3 -22 52 -49 108 -27 56 -52 113 -56 126 -7 23 -6 23
31 -7 48 -38 106 -63 122 -53 9 5 4 18 -19 47 -52 65 -99 172 -99 226 0 56
-10 60 -64 23 -43 -29 -48 -17 -7 18 22 18 46 26 98 31 75 8 131 35 176 85 53
60 31 86 -107 133 -69 23 -82 31 -95 59 -13 27 -26 36 -68 49 -28 8 -54 18
-58 21 -3 3 2 25 10 49 33 92 17 99 -94 40z"/>
<path d="M733 1060 c-36 -21 -39 -30 -21 -48 30 -30 88 3 88 50 0 24 -27 23
-67 -2z"/>
</g>
</svg>
