<?xml version="1.0" standalone="no"?>
<!DOCTYPE svg PUBLIC "-//W3C//DTD SVG 20010904//EN"
 "http://www.w3.org/TR/2001/REC-SVG-20010904/DTD/svg10.dtd">
<svg version="1.0" xmlns="http://www.w3.org/2000/svg"
 width="3456.000000pt" height="2592.000000pt" viewBox="0 0 3456.000000 2592.000000"
 preserveAspectRatio="xMidYMid meet">

<g transform="translate(0.000000,2592.000000) scale(0.100000,-0.100000)"
fill="#000000" stroke="none">
<path d="M10573 25368 c-34 -66 -68 -148 -88 -208 -45 -141 -60 -180 -96 -255
-21 -44 -49 -113 -63 -153 -14 -41 -34 -88 -45 -105 -10 -18 -29 -63 -41 -102
-36 -113 -63 -189 -76 -210 -73 -122 -577 -1643 -619 -1870 -9 -48 -28 -120
-41 -159 -42 -121 -71 -247 -78 -338 -4 -48 -14 -114 -23 -145 -8 -32 -22 -83
-30 -113 -40 -149 -64 -289 -73 -425 -5 -82 -15 -175 -20 -205 -6 -30 -17
-111 -26 -179 -8 -69 -17 -127 -19 -131 -2 -3 -11 -136 -21 -295 -13 -235 -15
-381 -10 -770 7 -600 20 -819 71 -1225 8 -63 19 -186 25 -274 5 -87 14 -175
20 -195 9 -34 25 -128 55 -321 7 -47 29 -139 49 -206 101 -340 112 -582 30
-721 -14 -25 -58 -81 -98 -125 -125 -139 -141 -162 -165 -236 -12 -38 -35 -88
-51 -110 -44 -62 -69 -121 -81 -190 -10 -63 -55 -163 -96 -213 -6 -8 -26 -52
-44 -99 -17 -46 -41 -93 -51 -104 -24 -26 -73 -131 -81 -174 -4 -18 -24 -56
-46 -85 -22 -29 -52 -90 -70 -139 -17 -48 -37 -98 -45 -110 -8 -13 -77 -180
-154 -373 -344 -863 -574 -1309 -916 -1780 -36 -49 -66 -94 -66 -98 0 -5 -11
-23 -24 -40 -14 -18 -39 -59 -56 -92 -29 -54 -31 -64 -25 -125 15 -155 69
-374 101 -411 8 -8 14 -20 14 -25 1 -5 9 -27 20 -49 11 -22 19 -47 20 -55 0
-17 39 -93 75 -145 13 -20 31 -62 40 -93 20 -66 39 -106 89 -182 20 -30 36
-61 36 -69 0 -8 69 -134 154 -280 200 -346 240 -422 329 -626 41 -93 154 -348
250 -565 96 -217 216 -489 267 -605 51 -115 96 -215 101 -220 4 -6 22 -47 40
-90 17 -44 35 -84 39 -90 22 -28 63 -112 86 -175 14 -40 38 -93 53 -118 27
-47 37 -66 151 -307 33 -71 66 -139 71 -151 18 -35 111 -130 161 -162 26 -17
59 -39 75 -50 97 -66 201 -130 219 -136 12 -4 65 -36 118 -71 54 -36 104 -65
112 -65 7 0 14 -3 14 -8 0 -4 27 -23 60 -42 124 -71 156 -90 190 -108 19 -10
73 -40 119 -65 46 -26 87 -47 91 -47 4 0 28 -16 54 -36 26 -20 80 -51 119 -70
40 -19 88 -44 107 -56 19 -11 85 -46 145 -77 61 -31 124 -66 142 -79 17 -12
62 -37 100 -54 37 -18 89 -47 114 -65 25 -18 79 -46 119 -62 40 -17 76 -34 79
-39 11 -14 133 -92 146 -92 7 0 41 -19 76 -43 35 -24 102 -61 149 -83 47 -23
92 -48 100 -56 8 -8 54 -36 101 -61 48 -26 93 -55 100 -63 7 -9 45 -32 83 -51
207 -104 596 -331 731 -428 340 -243 654 -591 912 -1007 102 -165 171 -283
194 -331 10 -23 33 -62 49 -87 58 -88 190 -380 190 -422 0 -9 29 -97 64 -196
106 -296 123 -362 191 -727 71 -379 116 -593 147 -695 22 -71 74 -145 138
-200 23 -19 81 -73 130 -120 120 -115 197 -184 385 -345 32 -27 75 -66 95 -85
20 -19 65 -62 101 -94 35 -33 91 -84 125 -115 73 -68 113 -103 179 -156 28
-22 68 -58 90 -80 133 -130 229 -213 390 -335 303 -230 558 -461 739 -670 50
-58 93 -107 97 -110 4 -3 8 -14 11 -25 5 -28 35 -22 133 25 156 75 556 354
726 507 42 37 132 118 200 178 164 146 367 332 456 419 40 39 81 75 92 81 20
10 103 82 203 174 32 30 68 61 80 69 18 13 76 65 158 142 30 29 113 99 150
128 14 11 45 39 71 63 51 49 108 102 254 234 227 205 278 283 295 447 10 104
29 183 65 274 l24 61 -15 229 c-20 291 -15 366 32 492 186 496 587 1216 873
1567 363 445 912 867 1801 1382 85 50 265 152 400 228 632 355 756 425 904
513 199 119 300 169 551 277 110 47 212 94 227 105 15 11 30 20 33 20 2 0 47
26 97 58 51 31 100 62 109 67 121 75 230 178 270 257 16 32 29 64 29 71 0 23
50 129 77 165 14 19 38 72 54 118 16 46 33 90 39 97 55 67 64 86 85 165 12 49
35 106 52 132 39 58 64 109 98 195 16 39 33 77 40 85 29 37 64 109 70 145 10
51 40 110 75 148 18 19 38 62 55 121 16 50 38 102 49 116 27 34 49 81 72 155
11 33 34 80 51 105 43 59 83 138 83 164 0 24 36 103 60 131 9 11 27 49 39 85
45 127 227 593 313 800 84 203 124 275 238 435 55 77 105 156 110 175 5 19 24
58 42 85 28 44 58 100 112 214 6 13 19 26 28 29 33 8 48 85 48 249 l0 154 -35
15 c-29 12 -42 29 -74 92 -22 43 -53 102 -70 131 -17 28 -36 73 -42 99 -8 31
-28 66 -58 101 -90 105 -158 192 -189 244 -33 55 -181 386 -282 632 -32 77
-88 214 -125 305 -37 91 -73 172 -80 180 -7 8 -24 49 -38 91 -14 41 -46 106
-72 144 -27 41 -56 101 -71 150 -14 45 -36 93 -49 107 -30 33 -62 98 -70 146
-3 22 -27 66 -60 110 -47 65 -75 131 -75 183 0 5 -23 43 -51 85 -28 41 -57 94
-64 118 -17 57 -46 112 -83 158 -16 20 -37 65 -46 100 -22 81 -36 118 -46 118
-7 0 -50 62 -58 85 -3 6 -48 78 -102 160 -183 280 -260 435 -260 520 0 25 -7
62 -15 82 -8 19 -15 47 -15 62 0 36 27 163 50 241 21 67 66 537 191 2005 l53
610 -13 335 c-7 184 -18 389 -26 455 -8 66 -21 210 -30 320 -9 110 -22 236
-30 280 -41 228 -67 392 -80 495 -12 108 -26 164 -89 372 -14 46 -32 142 -40
213 -15 132 -36 216 -59 244 -17 21 -55 143 -63 206 -8 59 -41 170 -59 199 -7
12 -25 66 -39 121 -38 140 -56 187 -214 565 -312 747 -388 948 -524 1375 -61
195 -68 219 -88 318 l-12 59 -36 -7 c-48 -9 -167 -64 -229 -106 -57 -38 -183
-166 -183 -185 0 -7 -13 -23 -29 -35 -15 -11 -39 -40 -52 -62 -22 -41 -78
-109 -185 -226 -28 -31 -110 -151 -182 -267 -251 -402 -492 -691 -1152 -1379
-169 -176 -325 -340 -348 -365 -105 -116 -152 -174 -152 -186 0 -8 -4 -14 -8
-14 -4 0 -31 -30 -60 -67 -29 -38 -67 -84 -84 -104 -18 -20 -42 -48 -53 -63
-11 -16 -59 -69 -107 -120 -48 -50 -88 -94 -88 -98 0 -4 -20 -30 -45 -58 -24
-27 -49 -60 -56 -72 -6 -13 -20 -32 -30 -43 -10 -11 -39 -45 -65 -75 -26 -30
-59 -69 -74 -86 -15 -17 -34 -42 -41 -56 -8 -14 -49 -64 -92 -110 -43 -47 -86
-96 -94 -109 -9 -13 -35 -44 -57 -69 -23 -25 -57 -65 -76 -89 -59 -73 -94
-114 -128 -153 -19 -20 -45 -51 -58 -69 -13 -19 -38 -46 -55 -61 -16 -15 -36
-43 -44 -61 -8 -19 -41 -63 -75 -98 -56 -58 -120 -166 -120 -201 0 -7 -13 -45
-29 -84 -23 -52 -34 -103 -45 -202 -22 -184 -42 -292 -76 -397 -16 -49 -36
-130 -44 -180 -9 -49 -23 -108 -31 -130 -8 -22 -14 -68 -15 -103 0 -56 2 -64
23 -71 54 -21 199 71 356 227 142 140 175 173 189 185 17 15 76 74 88 89 6 7
24 25 40 39 16 14 41 39 55 55 15 16 75 76 135 132 133 127 555 537 823 802
109 107 220 215 247 239 56 51 535 513 726 701 70 69 182 177 249 240 138 131
646 641 665 668 7 10 33 35 58 56 l45 37 23 -43 c12 -24 36 -83 54 -133 17
-49 43 -112 57 -140 13 -27 28 -66 32 -85 3 -19 35 -123 70 -230 159 -489 283
-986 360 -1445 72 -432 95 -678 102 -1100 8 -531 -25 -847 -139 -1300 -22 -88
-48 -209 -58 -270 -10 -60 -25 -139 -34 -175 -8 -36 -20 -126 -26 -200 -19
-241 -47 -418 -99 -612 -21 -79 -33 -156 -40 -254 -6 -77 -15 -153 -21 -168
-29 -78 10 -229 91 -348 27 -40 49 -80 49 -88 1 -38 49 -150 84 -195 42 -54
51 -74 72 -154 8 -30 29 -75 47 -100 18 -25 39 -59 46 -76 7 -16 48 -84 91
-150 142 -219 242 -420 416 -835 52 -124 110 -256 129 -294 19 -37 35 -77 35
-87 0 -23 45 -114 60 -124 12 -7 38 -63 64 -137 10 -26 29 -64 43 -85 35 -51
69 -121 78 -161 6 -28 37 -88 95 -182 5 -8 23 -49 41 -90 17 -41 47 -99 66
-128 19 -29 46 -84 60 -124 22 -64 54 -123 76 -139 4 -3 22 -41 40 -85 18 -43
54 -116 79 -162 26 -46 52 -98 57 -117 12 -43 63 -120 141 -213 l62 -73 -16
-92 c-28 -154 -37 -189 -72 -262 -18 -38 -48 -113 -67 -165 -242 -669 -779
-1840 -1142 -2490 -223 -400 -312 -522 -455 -628 -271 -201 -642 -407 -1155
-642 -99 -45 -243 -111 -320 -147 -77 -36 -162 -76 -190 -89 -27 -12 -66 -32
-85 -43 -19 -11 -69 -36 -110 -55 -41 -19 -101 -55 -134 -80 -32 -25 -63 -46
-69 -46 -6 0 -31 -17 -56 -38 -65 -53 -91 -68 -133 -76 -21 -4 -62 -27 -99
-56 -34 -28 -81 -59 -103 -70 -44 -21 -134 -77 -157 -97 -41 -37 -188 -142
-234 -168 -91 -51 -263 -193 -333 -275 -37 -43 -72 -79 -79 -79 -7 -1 -29 -12
-49 -26 -47 -32 -75 -32 -115 2 l-32 27 6 441 c12 733 41 1085 113 1355 18 69
28 139 35 255 15 266 40 320 197 429 33 23 88 62 123 87 35 26 84 57 109 70
25 13 59 37 75 53 17 17 53 42 80 56 27 14 65 40 85 58 19 19 50 40 68 48 34
15 48 26 116 86 22 20 61 47 86 59 66 33 95 60 170 160 63 84 68 94 79 167 16
104 28 138 68 199 36 55 46 82 68 178 7 33 35 107 62 165 28 58 56 132 63 165
12 56 66 172 95 205 8 9 20 49 26 90 7 41 25 102 41 134 15 33 46 123 68 201
64 230 127 400 209 570 43 88 82 171 86 185 8 24 38 71 63 98 8 9 12 53 12
144 l0 130 -27 -7 c-60 -14 -209 -78 -233 -99 -35 -32 -150 -106 -163 -106
-11 0 -87 -49 -97 -62 -3 -4 -32 -19 -65 -34 -66 -30 -145 -81 -145 -93 0 -5
-26 -22 -59 -39 -32 -18 -64 -39 -72 -48 -24 -30 -95 -72 -131 -79 -20 -4 -47
-15 -59 -25 -83 -64 -123 -90 -192 -125 -43 -21 -91 -51 -106 -66 -15 -15 -43
-34 -62 -42 -19 -8 -60 -35 -92 -61 -31 -25 -75 -52 -97 -60 -39 -13 -94 -46
-151 -91 -14 -11 -36 -27 -49 -35 -13 -8 -35 -24 -49 -36 -14 -12 -56 -37 -93
-57 -37 -20 -143 -88 -235 -151 -171 -116 -347 -226 -528 -330 -226 -130 -273
-170 -309 -268 -40 -109 -143 -641 -225 -1168 -17 -107 -87 -586 -155 -1065
-123 -857 -184 -1262 -251 -1665 -18 -113 -36 -241 -40 -285 -3 -44 -10 -105
-15 -135 -31 -178 -49 -320 -55 -430 -6 -123 -15 -222 -34 -410 -17 -163 -39
-420 -46 -532 -3 -59 -15 -138 -26 -175 -17 -60 -19 -101 -19 -353 0 -710 -57
-1126 -190 -1401 -29 -61 -45 -76 -358 -341 -374 -318 -431 -367 -487 -424
-22 -22 -55 -51 -74 -64 -19 -13 -46 -36 -60 -50 -14 -15 -53 -50 -86 -79
-231 -201 -265 -237 -265 -272 0 -28 -2 -29 -49 -29 -46 0 -51 3 -82 43 -52
67 -292 293 -509 477 -29 25 -67 58 -84 74 -17 15 -45 39 -63 53 -18 13 -51
43 -75 66 -24 23 -68 62 -97 87 -29 25 -79 70 -110 100 -32 30 -87 81 -124
114 -37 32 -112 103 -167 157 -56 54 -111 105 -122 113 -19 14 -21 29 -29 248
-10 267 -20 382 -49 558 -11 69 -25 152 -30 184 -5 33 -14 141 -20 240 -15
259 -38 495 -67 691 -55 374 -73 553 -73 736 0 283 -33 578 -111 971 -14 71
-19 142 -20 270 0 95 -4 209 -9 253 -35 326 -69 561 -96 680 -9 43 -18 138
-20 245 -4 146 -9 184 -26 230 -12 30 -25 60 -29 65 -24 33 -53 245 -64 470
-9 189 -31 396 -54 508 -37 175 -119 502 -141 557 -49 123 -70 187 -70 214 0
84 -140 400 -226 513 -76 99 -189 202 -260 237 -32 16 -77 44 -99 61 -53 42
-106 71 -141 79 -16 4 -45 21 -64 39 -41 37 -112 87 -125 87 -10 0 -87 51 -96
63 -7 10 -35 26 -104 61 -27 14 -79 46 -114 71 -36 25 -71 45 -79 45 -9 0 -47
24 -86 53 -62 46 -215 143 -294 187 -15 8 -61 36 -102 61 -41 25 -124 72 -183
103 -293 155 -564 327 -845 536 -122 91 -138 100 -178 100 -48 0 -80 -24 -91
-70 -11 -42 33 -237 60 -269 13 -16 34 -62 46 -102 45 -149 54 -175 75 -209
34 -54 54 -101 61 -145 4 -22 10 -51 15 -65 5 -14 11 -37 14 -52 3 -15 12 -33
19 -40 22 -22 67 -110 77 -147 36 -144 46 -170 92 -241 19 -29 35 -105 44
-210 6 -78 35 -157 72 -198 23 -26 47 -95 56 -163 5 -34 30 -84 91 -183 307
-499 670 -864 1127 -1133 126 -74 127 -75 133 -117 6 -49 35 -395 70 -856 36
-463 103 -1303 115 -1430 6 -58 10 -120 10 -138 0 -30 -2 -33 -22 -25 -13 4
-39 8 -58 9 -55 2 -56 2 -101 40 -24 20 -73 51 -110 70 -248 124 -522 315
-1149 798 -96 75 -206 152 -245 172 -38 20 -88 49 -110 63 -22 15 -83 48 -136
75 -53 26 -105 56 -114 67 -10 10 -22 19 -26 19 -16 0 -135 59 -179 89 -25 17
-49 31 -55 31 -15 1 -94 42 -155 81 -30 20 -84 50 -120 68 -36 18 -79 40 -95
50 -17 10 -71 33 -120 51 -809 294 -998 474 -1190 1128 -25 86 -59 186 -74
222 -16 36 -34 83 -41 105 -7 22 -24 57 -37 77 -41 67 -80 142 -87 173 -9 37
-44 112 -68 145 -10 14 -34 66 -54 115 -20 50 -42 97 -49 105 -6 8 -24 42 -39
75 -14 33 -35 77 -46 97 -11 20 -20 42 -20 48 0 6 -31 75 -69 153 -38 78 -78
162 -90 187 -22 48 -52 102 -68 122 -6 7 -13 31 -16 54 -8 49 -30 95 -73 151
-18 23 -35 55 -38 70 -4 16 -42 94 -86 173 -44 80 -144 271 -221 425 l-142
280 50 66 c68 90 201 305 252 409 24 47 78 153 122 235 93 177 133 261 142
297 4 15 21 47 37 72 41 60 115 204 124 240 4 16 22 53 41 82 19 30 38 66 41
81 9 36 66 152 93 190 19 27 35 78 46 154 3 19 21 60 40 90 19 30 43 73 55 97
11 23 29 61 40 85 32 66 83 154 103 175 9 10 17 22 17 27 0 5 6 16 14 24 7 9
28 43 45 76 18 33 37 64 42 69 5 6 9 17 9 25 0 9 13 43 28 76 26 58 39 80 89
156 13 20 32 64 43 98 10 34 34 83 54 111 19 27 38 62 42 77 4 15 10 33 14 38
5 6 12 28 16 50 10 57 35 110 88 188 25 38 46 79 46 91 0 41 22 90 65 146 27
35 53 85 71 140 16 47 34 91 41 98 6 7 26 43 43 80 17 37 54 110 81 163 l49
96 -144 869 c-80 478 -154 920 -165 983 -27 149 -57 422 -72 650 -15 243 -6
991 15 1241 80 935 255 1729 478 2175 25 50 51 117 58 150 23 115 55 165 117
186 54 17 78 5 139 -74 31 -39 63 -77 71 -83 7 -6 39 -34 71 -62 31 -27 113
-92 182 -143 451 -335 898 -734 1550 -1388 522 -522 764 -782 1130 -1216 291
-344 326 -375 423 -375 l57 0 0 75 c0 192 -82 603 -175 875 -47 136 -127 322
-169 393 -33 57 -155 202 -245 294 -18 18 -43 47 -55 63 -47 64 -105 138 -123
155 -10 10 -22 26 -28 35 -30 50 -110 148 -195 239 -25 26 -70 79 -100 116
-30 38 -67 80 -81 94 -21 21 -91 111 -164 209 -5 8 -30 36 -55 62 -25 26 -72
80 -105 120 -33 40 -77 91 -97 115 -21 23 -38 46 -38 51 0 4 -13 22 -29 39
-17 16 -42 47 -58 67 -95 124 -182 218 -483 523 -500 506 -614 642 -896 1068
-102 153 -198 293 -214 310 -16 18 -41 50 -55 72 -24 35 -65 84 -220 261 -25
29 -45 56 -45 61 0 5 -16 24 -35 43 -19 19 -47 52 -62 74 -32 48 -46 64 -94
111 -20 19 -42 46 -49 59 -17 34 -153 129 -233 166 -37 17 -68 30 -69 30 -2 0
-13 -19 -25 -42z"/>
</g>
</svg>
